<?xml version="1.0" encoding="UTF-8"?>
<svg width="169px" height="30px" viewBox="0 0 169 30" version="1.1" xmlns="http://www.w3.org/2000/svg" xmlns:xlink="http://www.w3.org/1999/xlink">
    <!-- Generator: sketchtool 50.2 (55047) - http://www.bohemiancoding.com/sketch -->
    <title>2C5769BF-9F64-4D34-B7E3-5447021210EC</title>
    <desc>Created with sketchtool.</desc>
    <defs>
        <polygon id="path-1" points="0 0.0092862377 19.8711223 0.0092862377 19.8711223 26.9178021 0 26.9178021"></polygon>
        <polygon id="path-3" points="0.0637130667 0.00916988133 21.8665913 0.00916988133 21.8665913 30 0.0637130667 30"></polygon>
        <polygon id="path-5" points="0.0361884368 30 168.819058 30 168.819058 0 0.0361884368 0"></polygon>
        <polygon id="path-7" points="0.0361884368 30 168.819058 30 168.819058 0 0.0361884368 0"></polygon>
        <polygon id="path-9" points="0.0361884368 30 168.819058 30 168.819058 0 0.0361884368 0"></polygon>
        <polygon id="path-11" points="0.0361884368 30 168.819058 30 168.819058 0 0.0361884368 0"></polygon>
        <polygon id="path-13" points="0.0361884368 30 168.819058 30 168.819058 0 0.0361884368 0"></polygon>
    </defs>
    <g id="Page-1" stroke="none" stroke-width="1" fill="none" fill-rule="evenodd">
        <g id="Index" transform="translate(-105.000000, -37.000000)">
            <g id="eha-clinic-logo" transform="translate(105.000000, 37.000000)">
                <g id="Group-3">
                    <g id="Fill-1-Clipped">
                        <mask id="mask-2" fill="white">
                            <use xlink:href="#path-1"></use>
                        </mask>
                        <g id="path-1"></g>
                        <path d="M-3.96396396e-05,7.82509136 C0.179131532,4.79931506 1.41905946,2.42455368 3.84817658,1.00065893 C6.28680721,-0.429649743 8.81105946,-0.374329507 10.9789514,1.57350397 C13.9202126,4.21203864 16.3632036,7.46791508 19.0353117,10.438772 C20.1440324,11.5555994 19.1054739,11.8666755 18.6329694,12.4788059 C18.0300505,13.2609057 17.5024468,13.3118164 16.8250054,12.5289148 C14.5524649,9.90561323 12.2573297,7.30716569 9.93246486,4.74399481 C8.7734018,3.46561634 7.3872036,2.96051855 5.76713153,3.52975575 C4.14349189,4.0997947 3.2848973,5.40623415 2.97253694,7.21175832 C2.68911351,8.84089916 3.23455495,10.2267111 4.21761802,11.3527585 C7.32298739,14.913698 10.4790955,18.4193172 13.5884288,21.9758471 C14.2333658,22.7138511 14.7542306,22.8329098 15.3952036,22.0123263 C15.8760324,21.3961872 16.4420865,20.8658346 16.9292577,20.2577129 C17.5694378,19.4607807 18.0970414,19.0534955 18.9861586,20.0320222 C19.8950955,21.0337996 20.4563928,20.9945142 18.8700144,22.492971 C17.6621946,23.6350533 16.6204649,24.9619371 15.5371135,26.2435226 C14.8842486,27.0164023 14.3368252,27.2168379 13.5805009,26.3549647 C9.63873514,21.85759 5.64504144,17.4207469 1.71714955,12.9093416 C0.532717117,11.550388 0.0740864865,9.77933879 -3.96396396e-05,7.82509136" id="Fill-1" fill="#25A9E0" fill-rule="nonzero" mask="url(#mask-2)"></path>
                    </g>
                </g>
                <g id="Group-6" transform="translate(14.000000, 0.000000)">
                    <g id="Fill-4-Clipped">
                        <mask id="mask-4" fill="white">
                            <use xlink:href="#path-3"></use>
                        </mask>
                        <g id="path-3"></g>
                        <path d="M19.7434988,13.2016082 C14.7944971,18.5495528 9.83329378,23.8835986 4.89446017,29.2418682 C4.18960975,30.0071084 3.63565345,30.3843674 2.74289714,29.4420141 C1.81394252,28.462729 1.81394252,28.0826902 2.87101479,26.9775197 C7.71874252,21.9091439 12.4477072,16.6437991 17.2112434,11.4495378 C19.2977308,9.17446726 19.3892434,6.43596378 17.513845,4.48771869 C15.7405341,2.64748883 13.2770148,2.88575769 11.1994753,5.10721775 C10.0887156,6.29339957 8.96331395,7.46647661 7.89200639,8.69316416 C7.19610387,9.49017351 6.62059126,9.58270126 5.87262824,8.74478908 C4.18838958,6.85611121 2.49072908,4.97815543 0.719858487,3.17843127 C-0.411644034,2.02719555 0.125636639,1.83936025 0.798762689,1.16148534 C1.42348874,0.533249761 1.9623963,-0.12397519 2.81000639,0.83585122 C3.72635261,1.87629193 4.74600639,2.81745394 5.6155795,3.89998883 C6.54128034,5.05043033 7.28070218,4.94241511 8.1486484,3.84637833 C8.74571731,3.09106603 9.41680975,2.37745077 10.1464703,1.77304209 C12.4525879,-0.139859781 14.9990787,-0.544519737 17.648877,0.79335994 C20.3637509,2.16618571 21.6424871,4.63663673 21.8665913,7.71348201 C21.7669442,9.89125943 21.1186282,11.7167961 19.7434988,13.2016082" id="Fill-4" fill="#0093FF" fill-rule="nonzero" mask="url(#mask-4)"></path>
                    </g>
                </g>
                <polygon id="Fill-7" fill="#0093FF" fill-rule="nonzero" points="54 23 46 23 46 8 54 8 54 8.96426298 47.0213593 8.96426298 47.0213593 14.6380134 53.6093203 14.6380134 53.6093203 15.6026743 47.0213593 15.6026743 47.0213593 22.0357369 54 22.0357369"></polygon>
                <polygon id="Fill-9" fill="#0093FF" fill-rule="nonzero" points="68 23 66.9299344 23 66.9299344 15.6229704 58.0595906 15.6229704 58.0595906 23 57 23 57 8 58.0595906 8 58.0595906 14.6587074 66.9299344 14.6587074 66.9299344 8 68 8"></polygon>
                <path d="M73.7442955,16.7874865 L79.2766294,16.7874865 L77.1718479,11.4025154 C76.9954237,10.9804212 76.7837147,10.3946416 76.5371311,9.64517664 C76.3467571,10.2991254 76.1383304,10.8916427 75.9126716,11.4231247 L73.7442955,16.7874865 Z M79.6360423,17.7275874 L73.3532902,17.7275874 L71.1951713,23 L70,23 L76.2195677,8 L76.9072117,8 L83,23 L81.7834938,23 L79.6360423,17.7275874 Z" id="Fill-11" fill="#0093FF" fill-rule="nonzero"></path>
                <path d="M97,13.4876149 C96.0571162,12.3755854 94.8924018,11.8189696 93.5058567,11.8189696 C92.8959263,11.8189696 92.3307765,11.9263656 91.8108219,12.1407569 C91.2908676,12.3551481 90.8438892,12.6468806 90.4694723,13.0151527 C90.0954701,13.3838255 89.8006634,13.8226263 89.5854669,14.3315551 C89.3706851,14.8412853 89.2632944,15.390688 89.2632944,15.9801638 C89.2632944,16.5832644 89.3706851,17.1390788 89.5854669,17.6484083 C89.8006634,18.1577379 90.0983725,18.6001453 90.4798384,18.974829 C90.8608893,19.3503144 91.3082824,19.6452526 91.8216026,19.8592431 C92.3340934,20.0740351 92.8888773,20.1810304 93.485125,20.1810304 C94.788328,20.1810304 95.9600913,19.6452526 97,18.5728955 L97,23.2366069 L96.5841195,23.3772635 C95.9600913,23.591254 95.3779414,23.7487415 94.8368405,23.849325 C94.2961542,23.9499086 93.7621023,24 93.2355137,24 C92.1541412,24 91.1175494,23.8024395 90.1265678,23.4073183 C89.1347569,23.0121971 88.2615321,22.4559822 87.506064,21.7386731 C86.7497668,21.0221655 86.143568,20.1710121 85.6862238,19.1860144 C85.2284648,18.2010168 85,17.1258547 85,15.9597265 C85,14.793999 85.2251476,13.7256493 85.6754431,12.7538758 C86.1257386,11.7825031 86.7290349,10.9449746 87.4853322,10.2412903 C88.2408003,9.53800686 89.1177567,8.98820348 90.1157873,8.59308237 C91.114647,8.19796129 92.16119,8 93.2566602,8 C93.8806882,8 94.493936,8.06371629 95.0972322,8.19114885 C95.7001141,8.3185814 96.3349228,8.51614196 97,8.78383049 L97,13.4876149 Z" id="Fill-13" fill="#0093FF" fill-rule="nonzero"></path>
                <polygon id="Fill-15" fill="#0093FF" fill-rule="nonzero" points="102.637911 8 102.637911 19.6974696 107 19.6974696 107 23 99 23 99 8"></polygon>
                <g id="Fill-17-Clipped" transform="translate(4.000000, 0.000000)">
                    <mask id="mask-6" fill="white">
                        <use xlink:href="#path-5"></use>
                    </mask>
                    <g id="path-5"></g>
                    <polygon id="Fill-17" fill="#0093FF" fill-rule="nonzero" mask="url(#mask-6)" points="106.7197 23.2894737 110.700428 23.2894737 110.700428 8.28947368 106.7197 8.28947368"></polygon>
                </g>
                <g id="Fill-19-Clipped" transform="translate(4.000000, 0.000000)">
                    <mask id="mask-8" fill="white">
                        <use xlink:href="#path-7"></use>
                    </mask>
                    <g id="path-5"></g>
                    <polygon id="Fill-19" fill="#0093FF" fill-rule="nonzero" mask="url(#mask-8)" points="114.283084 23.2894737 114.283084 8.28947368 118.220264 8.28947368 125.492293 17.4605691 125.492293 8.28947368 129.40985 8.28947368 129.40985 23.2894737 125.492293 23.2894737 118.220264 14.1183783 118.220264 23.2894737"></polygon>
                </g>
                <g id="Fill-20-Clipped" transform="translate(4.000000, 0.000000)">
                    <mask id="mask-10" fill="white">
                        <use xlink:href="#path-9"></use>
                    </mask>
                    <g id="path-5"></g>
                    <polygon id="Fill-20" fill="#0093FF" fill-rule="nonzero" mask="url(#mask-10)" points="132.594433 23.2894737 136.575161 23.2894737 136.575161 8.28947368 132.594433 8.28947368"></polygon>
                </g>
                <g id="Fill-21-Clipped" transform="translate(4.000000, 0.000000)">
                    <mask id="mask-12" fill="white">
                        <use xlink:href="#path-11"></use>
                    </mask>
                    <g id="path-5"></g>
                    <path d="M151.303854,12.9154094 C150.396823,11.818012 149.276395,11.26872 147.942572,11.26872 C147.355834,11.26872 146.812173,11.3747029 146.31199,11.5862732 C145.811806,11.7978436 145.381823,12.0857374 145.021643,12.4491638 C144.661862,12.8129857 144.378265,13.2460128 144.171251,13.7482451 C143.964636,14.2512684 143.861329,14.7934421 143.861329,15.3751616 C143.861329,15.9703268 143.964636,16.5188278 144.171251,17.0214556 C144.378265,17.5240834 144.664654,17.9606697 145.031615,18.3304234 C145.398177,18.7009681 145.82816,18.9920256 146.32236,19.2032005 C146.815364,19.4151663 147.349053,19.5207537 147.922629,19.5207537 C149.176279,19.5207537 150.303487,18.9920256 151.303854,17.9337785 L151.303854,22.5361252 L150.903787,22.6749311 C150.303487,22.8861059 149.743473,23.0415212 149.222947,23.1407813 C148.70282,23.2400414 148.189074,23.2894737 147.682509,23.2894737 C146.642254,23.2894737 145.644679,23.0945127 144.691777,22.7045905 C143.737679,22.3146683 142.897658,21.7657719 142.170915,21.0579011 C141.443376,20.3508212 140.859828,19.5108672 140.419874,18.53883 C139.979521,17.566793 139.759743,16.5057776 139.759743,15.3549933 C139.759743,14.2046043 139.976729,13.1503118 140.409902,12.1913248 C140.843075,11.2327333 141.423432,10.4062249 142.150573,9.71179969 C142.877315,9.01776993 143.720926,8.4752008 144.681407,8.08527866 C145.641887,7.69535653 146.648636,7.5 147.702851,7.5 C148.303151,7.5 148.893081,7.56287792 149.473437,7.68863373 C150.053395,7.81438954 150.664066,8.00935062 151.303854,8.27351693 L151.303854,12.9154094 Z" id="Fill-21" fill="#0093FF" fill-rule="nonzero" mask="url(#mask-12)"></path>
                </g>
                <g id="Fill-22-Clipped" transform="translate(4.000000, 0.000000)">
                    <mask id="mask-14" fill="white">
                        <use xlink:href="#path-13"></use>
                    </mask>
                    <g id="path-5"></g>
                    <path d="M162.258921,11.7448521 C161.832068,11.4011986 161.405215,11.1465233 160.978363,10.9812216 C160.55151,10.81592 160.138221,10.7332691 159.738097,10.7332691 C159.230661,10.7332691 158.817372,10.8523022 158.497033,11.0903682 C158.177093,11.3280388 158.016724,11.6388692 158.016724,12.022464 C158.016724,12.2874213 158.096908,12.5053189 158.257277,12.6769479 C158.417247,12.8489724 158.627083,12.9976648 158.887583,13.1234206 C159.147285,13.2491764 159.440896,13.358323 159.768016,13.4504649 C160.094339,13.5433976 160.418268,13.6426577 160.738208,13.7482451 C162.018766,14.1717813 162.955847,14.7368915 163.549451,15.4439714 C164.143455,16.1518422 164.440257,17.074447 164.440257,18.2113904 C164.440257,18.9785801 164.310207,19.6726098 164.049707,20.2942707 C163.790005,20.9159314 163.409827,21.4482187 162.909571,21.8911322 C162.409316,22.3340457 161.795367,22.6776993 161.06852,22.9224882 C160.340876,23.1668815 159.517889,23.2894737 158.597164,23.2894737 C156.689492,23.2894737 154.921843,22.727527 153.294218,21.6032384 L154.9753,18.4692293 C155.562122,18.9849074 156.142562,19.3688977 156.71622,19.6200138 C157.289479,19.87113 157.856754,19.9964903 158.417247,19.9964903 C159.057526,19.9964903 159.534245,19.8513569 159.847802,19.5602995 C160.16096,19.2696375 160.318138,18.9386387 160.318138,18.5684894 C160.318138,18.343869 160.277846,18.148908 160.19806,17.9832108 C160.117876,17.8179091 159.984634,17.666053 159.797936,17.5272471 C159.610839,17.3884411 159.367493,17.2591262 159.067499,17.1404886 C158.767107,17.0210601 158.403684,16.8893724 157.97723,16.7434482 C157.469794,16.5848694 156.97273,16.4096812 156.486039,16.2178838 C155.999347,16.0264819 155.565712,15.7714111 155.185534,15.4542534 C154.804957,15.1367001 154.498182,14.7368915 154.265208,14.2540366 C154.031437,13.7715772 153.91495,13.1601983 153.91495,12.4195044 C153.91495,11.6788105 154.038218,11.0077174 154.285155,10.4058295 C154.531692,9.80433699 154.87836,9.28865905 155.325558,8.85879559 C155.772357,8.42893214 156.318888,8.09516513 156.966347,7.85670361 C157.613009,7.61863757 158.337063,7.5 159.137711,7.5 C159.884503,7.5 160.664806,7.60242377 161.478618,7.8072713 C162.292032,8.01251429 163.072733,8.31306278 163.819925,8.70970771 L162.258921,11.7448521 Z" id="Fill-22" fill="#0093FF" fill-rule="nonzero" mask="url(#mask-14)"></path>
                </g>
            </g>
        </g>
    </g>
</svg>